# xmcd
#
# Track frame offsets:
# 150
# 11087
# 25637
# 38552
# 55270
# 64492
# 80529
# 96327
# 108532
# 119337
# 137267
# 152057
# 163362
# 172520
# 190360
#
# Disc length: 2672 seconds
#
#
# Revision: 0
# Processed by: cddbd v1.5.1PL0 Copyright (c) Steve Scherf et al.
# Submitted via: FreeRIP 2.942 
#
DISCID=c00a6e0f
DTITLE=JORGE NEGRETE - LAS INMORTALES DE JORGE NEGRETE
DYEAR=1900
DGENRE=Folklore
TTITLE0=AY JALISCO NO TE RAJES
TTITLE1=MEXICO LINDO Y QUERIDO
TTITLE2=COCULA
TTITLE3=YO SOY MEXICANO
TTITLE4=CORRIDO DE JORGE TORRES
TTITLE5=TEQUILA CON LIMON
TTITLE6=JUAN CHARRASQUEADO
TTITLE7=AMANECER RANCHERO
TTITLE8=EL DESTERRADO
TTITLE9=COPLAS DE DOS TIPOS DE CUIDADO
TTITLE10=SERENATA TAPATIA
TTITLE11=LA ADELITA
TTITLE12=AGUA DEL POZO
TTITLE13=LA CHANCLA
TTITLE14=LA CANCION DE LOS VAQUEROS
EXTD=
EXTT0=
EXTT1=
EXTT2=
EXTT3=
EXTT4=
EXTT5=
EXTT6=
EXTT7=
EXTT8=
EXTT9=
EXTT10=
EXTT11=
EXTT12=
EXTT13=
EXTT14=
PLAYORDER=
